<svg xmlns="http://www.w3.org/2000/svg" xmlns:android="http://schemas.android.com/apk/res/android" width="100dp" height="100dp" viewportWidth="100" viewportHeight="100">
	<path d="M91.74,100H8.65C4,100 0.24,96.74 0.24,92.72V7.58C0.24,3.57 4,0.31 8.65,0.31H91.74c4.65,0 8.42,3.26 8.42,7.27V92.72C100.16,96.74 96.39,100 91.74,100Z" fill="#06242a" fill-rule="evenOdd"/>
	<group>
		<clip-path d="M91.76,99.94H8.67C4,99.94 0.25,96.69 0.25,92.67V7.58C0.25,3.56 4,0.31 8.67,0.31H91.76c4.65,0 8.42,3.25 8.42,7.27V92.67C100.18,96.69 96.41,99.94 91.76,99.94Z" fill-rule="evenOdd"/>
		<path d="M0,52.55v1.32l-1.32,0.41L0,54.69V56l0.36,-0.54c0.52,2.25 1,4.52 1.35,6.79l-0.3,-0.36v1.32H1.36a68.44,68.44 0,0 0,-6.9 -7.41l0.83,0.25L-5.54,55l0.81,-1.07 -1.39,0.41L-7,53.27v1.32L-8.35,55l1.32,0.41v1.32l0.87,-1c2.49,2.49 5,4.9 7.31,7.58l-1.09,0.35L1.42,64v1.32l0.83,-1.07 0.11,0c0,0.5 0.44,1.13 0.4,1.52l-0.4,-0.44V67.7l-2.29,0.71 2.29,0.71v2.29l1.48,-1.85 0.56,0.15c0.66,1.05 1.24,2.09 1.95,3.19v0.39L5,73.7l1.32,0.41v1.32l0.82,-1.07c3,1.79 5.78,4.87 8.84,6.86l-1.3,0.39L16,82v1.32l0.89,-1c4.91,2 10.4,3.44 15.07,5.9v0.18l-1.32,0.41 1.32,0.41v1.32l0.84,-1c0,1.7 0,3.39 0.1,5.09l-0.07,0 -0.87,-1.07v1.32l-1.32,0.41 1.32,0.41V97l0.36,-0.43c-0.59,2.19 -1.19,4.4 -1.61,6.63l-0.06,0 -0.8,-1.07v1.18h1.69l0.39,-0.52 -0.95,0.28c0.75,-2.34 1.25,-4.8 1.85,-7.18l1.38,0.41 -0.83,-1.07 0.8,-1.07 -1.07,0.33c0,-1.67 0,-3.33 0,-5l1.13,0.34 -0.83,-1.07 0.8,-1.07 -1.35,0.41 -0.87,-1.07V88c-4.48,-2.37 -9.14,-3.63 -13.77,-5.49l-0.67,-0.86 0.81,-1.07L16.9,81 16,79.88V81c-2.47,-2.52 -6,-4.55 -8.32,-7.31l0.82,-1.07L7.17,73 6.35,72v0.34c-0.47,-0.85 -0.9,-1.67 -1.42,-2.45l1.29,0.41L4.79,68.41 6.2,66.56l-2.3,0.71a7.46,7.46 0,0 1,-1.24 -2.85l0.93,0.28 -0.82,-1.07c1.7,-1.89 3.68,-3.45 5.45,-5.3v0.92l0.83,-1.07 1.36,0.41 -0.84,-1.07 0.8,-1.07 -1.31,0.41 -0.84,-1.07v1.32l-1.35,0.41 1.27,0.4c-1.69,1.52 -3.33,3.13 -4.93,4.75l-1,0.3 -0.29,-0.35a70,70 0,0 0,-1.4 -7.46l0.17,-0.22 1.37,0.41 -0.82,-1.07 0.8,-1.07L0.8,53.62Z" fill="#144144"/>
		<path d="M102.47,-8.66v1.42l-1.39,0.45 1.39,0.44v1.43l1,-1.16 0.33,0.09s0,0 0,0c-3,5.75 -6.06,12.1 -9.06,18L93.3,10.27v2.47l-2.42,0.77 2.42,0.76v0.22c-2.48,4.12 -5.46,8.07 -8.13,12.13l-1.53,-2v2.48l-2.42,0.76 2.42,0.77v2.47L85,29.44c0.29,1.07 0.64,2.16 0.95,3.24l-0.09,-0.19v1.43l-1.39,0.44 1.39,0.44c-0.8,0.86 -1.58,1.77 -2.33,2.67l-0.9,-1.1V37.8l-1.39,0.44 1.39,0.44v1.43l0.81,-1a15.92,15.92 0,0 1,0.65 2.62l-1.29,0.39 1.32,0.44V44l0.93,-1.08c3.82,1.73 7.55,3.81 11.52,5.12l-1.08,0.3 1.27,0.44V50.2l1,-1.15 1.52,0.44 -0.75,-1c2.74,-1 5.38,-1.94 8.1,-3l0.49,0.19V47.1l1,-1.16c1.33,0.27 2.4,1.39 3.59,2.06l-1,0.33 1.39,0.44V50.2l0.94,-1.15 1.46,0.44 -0.1,-0.14c2,0.89 4,1.73 6.08,2.56l-1,0.3 1.32,0.45v1.42l1,-1.15 1.49,0.44 -0.85,-1.16 0.85,-1.15 -1.49,0.44 -1,-1.15s0,1.41 0,1.45c-2.25,-1 -4.48,-2 -6.78,-3l-0.35,-0.5 0.85,-1.15 -1.44,0.44 -0.94,-1.16v1.43c-0.87,-1 -2.48,-1.46 -3.25,-2.66l0.85,-1.16 -1.53,0.44 -1,-1.15v1.43l-1.28,0.44 0.4,0.11c-2.6,0.92 -5.15,1.89 -7.71,2.88l0.78,-1 -1.55,0.44 -1,-1.16v1.43h0.13c-3.67,-0.94 -7.07,-3.06 -10.53,-4.68l0.25,0.07 -0.86,-1.16L86.62,41l-1.5,0.44 -1,-1.16v1.1A6.84,6.84 0,0 0,83.66 39l1.36,0.4 -0.85,-1.15L85,37.08l-1.21,0.38c0.7,-0.73 1.31,-1.46 2.06,-2.22v1l0.92,-1.16 1.45,0.44 -0.87,-1.15 0.85,-1.16 -1.42,0.44 -0.24,-0.3a26.47,26.47 0,0 0,-1.17 -4.23l2.41,0.77 -1.49,-2 1.49,-2 -2.19,0.67A91.89,91.89 0,0 0,93.3 15.1v1.65l1.57,-2 2.46,0.76 -1.47,-2 1.5,-2L95,12.26c3.11,-6 6.12,-12.1 9.14,-18.16l0.87,0.26 -0.6,-0.79a0.17,0.17 0,0 0,-0.19 -0.25l-0.08,-0.11L105,-7.95l-1.5,0.44Z" fill="#144144"/>
		<path d="M96.87,80.31v1.43l-1.47,0.44 1.47,0.44v0c-2,0.86 -3.11,2.36 -5.11,2.68l-1.13,-1.16v1.43l-1.32,0.44 1.3,0.37c-1.07,1.3 -2,2.48 -3.08,3.78l-0.79,-1v1.43l-1.47,0.44 1.47,0.44v0.27C79.29,102.89 73.38,115 64.92,125.31l-1.56,-2v2.48l-2.54,0.76 2.54,0.77v2.47l1.56,-2 2.53,0.77 -1.57,-2 1.56,-2 -1.9,0.57c8.27,-10.05 13.91,-21.61 21.2,-32.44V93l1,-1.16 1.52,0.44 -0.91,-1.15L89.19,90l-1.4,0.42a32.66,32.66 0,0 0,2.84 -3.66v1.22l1.1,-1.15 1.6,0.44 -0.88,-1.16c1.24,-1.39 2.65,-1.93 4.42,-3v1l0.6,-0.79c0,1.69 0.14,3.37 0.22,5.06l-0.82,-1v1.43l-1.47,0.44 1.47,0.44V91l0.49,-0.66A25.27,25.27 0,0 0,97.09 93l-0.44,0.12 -1.6,-2v2.48l-2.54,0.76 2.54,0.77v2.47l1.59,-2 0.32,0.09c-3.53,11.76 -7.17,23.44 -11.19,35.06l-0.29,0.05 -1.08,-1.16V131l-1.46,0.44 1.46,0.44v1.43l1.08,-1.15 1.59,0.44 -0.88,-1.16 0.9,-1.15 -1,0.3A339.3,339.3 0,0 0,97.36 95.78l1.84,0.55 -1.57,-2 1.57,-2 -1.84,0.55c0.11,-1 0.27,-2 0.43,-3l1.46,0.42 -0.92,-1.15L99.22,88l-1.35,0.4c0,-1.83 0,-3.67 -0.1,-5.5l1.48,0.43 -0.92,-1.16L99.22,81l-1.44,0.44Z" fill="#144144"/>
		<path d="M28,-6.21l-0.75,1.35L25.8,-4.7l1,0.68 -0.76,1.36 0.77,-0.48C24.88,-0.29 23,2.6 21.22,5.5L21,4.23l-0.76,1.36 -1.48,0.15 1,0.68c-1,2.11 -4.38,4 -6.3,5.49l-0.11,-2L12,12.29c-2.81,0.35 -5.21,-1.11 -7.86,-1.47l0.76,-0.54 -1.55,0.14L3.13,9.15l-0.55,1C0,7.22 -3,4.33 -5.86,1.45l0,-0.28 2.4,-1.62 -2.44,0.3L-6.07,-2.3 -7.38,0.05 -9.95,0.32 -8.19,1.5 -9.5,3.84l1.88,-1.38c-0.23,7.42 -0.48,14.82 -0.51,22.18l-2.18,0.24 1.77,1.18 -1.31,2.35 2.35,-1.63A137.17,137.17 0,0 0,5.13 35.86L3.76,36 5.55,37.2 4.24,39.54 6.6,37.91l1.74,1.17L8.05,36.9l2.39,-1.62 -2.57,0.28 -0.26,-2c1.29,-6.34 3.14,-12.75 4.54,-19.1l1.71,1.13 -0.28,-2.17L16,11.8l-2.41,0.26a57.87,57.87 0,0 0,7 -5.19l1.05,0.68L21.41,6.3l1.37,-0.94 -1.21,0.12c2,-3 4,-6 6,-9.06l1.06,0.69 -0.17,-1.26 1.37,-0.94 -1.52,0.15ZM9.47,12.49l-0.12,0 1.87,1.2L9.91,16.08l2,-1.42c-1.52,6.48 -3.31,13 -4.6,19.44l-0.92,1.64 -0.71,0.07C1.76,33.17 -2.11,30.48 -5.8,27.63L-6,25.77l2.39,-1.62 -2.53,0.28 -0.24,-2.17 -1.31,2.35h-0.09c0.29,-7.51 0.4,-15 0.49,-22.43h0l1.76,1.18 -0.19,-1.24C-3,4.89 -0.28,7.72 2.44,10.4l-0.06,0.1 -1.49,0.16 1,0.68 -0.76,1.35 1.46,-0.92 1.08,0.69 -0.16,-1.25 0.21,-0.14C5.6,11.61 7.54,12.06 9.47,12.49Z" fill="#144144"/>
	</group>
	<path d="M79.68,39.16a1.19,1.19 0,0 0,-0.79 0.3L71,31.65L71,20.18c1.85,-0.51 -0.39,-2.73 -0.9,-0.88L58.57,19.3l-7.86,-7.8c1.55,-2.64 -3.44,-2.64 -1.88,0L41,19.3L29.41,19.3c-0.51,-1.85 -2.75,0.38 -0.89,0.88L28.52,31.65l-7.87,7.8c-2.65,-1.55 -2.65,3.4 0,1.86l7.87,7.8L28.52,60.57c-1.86,0.51 0.38,2.73 0.89,0.89L41,61.46l7.87,7.8c-1.56,2.64 3.43,2.63 1.88,0l7.86,-7.8L70.12,61.46c0.52,1.84 2.75,-0.38 0.9,-0.89L71.02,49.11l7.87,-7.81C80.67,42.63 81.92,39.31 79.68,39.16ZM78.76,39.59a1.16,1.16 0,0 0,-0.29 0.69L73.39,40.28L71,37.93v-6ZM68.66,35.59L70.83,32v5.72ZM68.52,35.45 L66.52,33.45v-6L70.8,31.7ZM56.71,23.74l-2,-2 3.78,-2.26 4.27,4.23ZM54.6,21.63l-2.17,-2.15h5.76ZM44.94,21.63 L41.35,19.48L47.1,19.48ZM44.8,21.77 L42.8,23.77L36.76,23.77L41,19.51ZM33,33.48l-2,2L28.73,31.7 33,27.47ZM30.88,35.59 L28.72,37.74L28.72,32ZM30.88,45.17 L28.72,48.73L28.72,43ZM31.02,45.31 L33.02,47.31v6l-4.26,-4.22ZM42.82,57l2,2L41,61.25 36.76,57ZM44.94,59.1 L47.1,61.25L41.35,61.25ZM54.6,59.1 L58.19,61.25L52.43,61.25ZM54.73,58.96 L56.73,56.96h6.07l-4.27,4.23ZM66.54,47.27l2,-2 2.28,3.75 -4.26,4.22ZM68.66,45.17L70.83,43v5.71ZM66.54,27.17L66.54,23.87L70.43,20a0.79,0.79 0,0 0,0.4 0.16L70.83,31.46ZM70.12,19.45a0.8,0.8 0,0 0,0.17 0.4l-3.88,3.86L63.05,23.71l-4.29,-4.26ZM52.24,19.3l-2.38,-2.36v-5a1.26,1.26 0,0 0,0.71 -0.29L58.3,19.3ZM49,11.63a1.29,1.29 0,0 0,0.71 0.29v5L47.3,19.3L41.23,19.3ZM36.49,23.74L33.13,23.74l-3.89,-3.86a0.8,0.8 0,0 0,0.17 -0.4L40.77,19.48ZM28.71,20.18a0.83,0.83 0,0 0,0.4 -0.16L33,23.87L33,27.2l-4.28,4.26ZM28.52,37.93 L26.14,40.28L21.08,40.28a1.23,1.23 0,0 0,-0.29 -0.7l7.73,-7.67ZM20.79,41.18a1.29,1.29 0,0 0,0.29 -0.71h5.06l2.38,2.36v6ZM33,53.55v3.33l-3.88,3.86a0.84,0.84 0,0 0,-0.4 -0.17L28.72,49.3ZM29.42,61.27a0.8,0.8 0,0 0,-0.17 -0.4L33.13,57h3.36l4.28,4.25ZM47.31,61.46 L49.68,63.82v5a1.3,1.3 0,0 0,-0.71 0.3l-7.73,-7.67ZM50.58,69.13a1.27,1.27 0,0 0,-0.71 -0.3v-5l2.38,-2.36L58.3,61.47ZM63.05,57h3.36l3.88,3.85a0.8,0.8 0,0 0,-0.17 0.4L58.76,61.25ZM70.83,60.55a0.8,0.8 0,0 0,-0.4 0.17l-3.89,-3.86L66.54,53.55l4.29,-4.25ZM71,42.83l2.37,-2.36h5.08a1.13,1.13 0,0 0,0.29 0.69L71,48.84Z" fill="#f9d157"/>
	<path d="M46,77a22,22 0,0 1,2.48 2.63A4,4 0,0 1,49.17 82c-0.13,2.06 -1.72,2.68 -3.47,2.2 -0.73,-0.2 -0.78,-0.89 -0.47,-1.48s0.56,-1.32 1.48,-0.83c0.35,0.2 0.69,0.42 1,0.63 0.36,-1.35 -1.11,-3.26 -3.21,-4.16 -0.33,2.91 -0.82,5.78 0.3,8.59 0.24,0.6 0.13,1.06 -0.45,1.21s-1,0.34 -1.42,-0.43a3.38,3.38 0,0 0,-1.81 -1.48,12.07 12.07,0 0,0 -3.65,-0.38 1.89,1.89 0,0 1,-1.82 -1.07,1.85 1.85,0 0,1 0.18,-1.52 17.67,17.67 0,0 1,5 -5.14c0.25,-0.19 0.49,-0.39 0.93,-0.72 -0.92,-0.13 -1.64,-0.28 -2.36,-0.31 -1.3,0 -2.6,-0.06 -3.89,0s-1.37,-0.07 -0.91,-1.46c2.28,0.11 4.61,0.25 6.94,0.33 1.4,0 2.8,0 4.21,0 1.65,0 3.3,-0.1 4.95,-0.12a39.44,39.44 0,0 1,4.07 0,20.75 20.75,0 0,1 2.63,0.68 1.44,1.44 0,0 0,1 -0.09,5.32 5.32,0 0,1 3.64,-0.74c0.93,0.1 1.05,0.42 0.72,1.09 -1.15,0.11 -2.16,0.16 -3.16,0.33 -0.19,0 -0.43,0.53 -0.42,0.81 0,1.08 0.18,2.15 0.31,3.53 0.36,0.32 1.34,0.9 0.87,1.85a2.34,2.34 0,0 1,-1.86 1c-0.46,0 -0.9,-0.87 -1.43,-1.45a3.61,3.61 0,0 0,-0.66 2.41,0.85 0.85,0 0,0 0.65,0.52 6.24,6.24 0,0 0,2.36 -0.45c0.91,-0.52 1.45,0.05 2.06,0.38s0.18,0.94 0,1.32A13.2,13.2 0,0 1,60 89.58c-1.37,1.7 -3,2 -4.75,0.8a22.29,22.29 0,0 1,-3.34 -3.18,1.77 1.77,0 0,1 -0.37,-1.31c0,-0.31 0.47,-0.58 0.73,-0.86a4.3,4.3 0,0 1,0.6 0.68,26.73 26.73,0 0,0 1.9,3.14c1.27,1.56 2.61,1.48 3.83,-0.11a12.25,12.25 0,0 0,0.92 -1.64c-1.06,0 -2,0.07 -2.87,0 -2.25,-0.22 -2.82,-1.38 -1.65,-3.29 0.46,-0.75 1,-1.44 1.56,-2.25a9.52,9.52 0,0 0,-1.05 -0.83c-0.54,-0.33 -1,-0.34 -1.17,0.46 -0.13,0.58 -0.37,1.26 -1.13,1.18 -0.92,-0.08 -1.27,-0.87 -1.51,-1.63s0.2,-1.07 0.74,-1.36c0.21,-0.13 0.44,-0.23 0.71,-0.37a2.18,2.18 0,0 0,-1.77 -1.69c-1.64,-0.25 -3.3,-0.29 -5,-0.41A1.05,1.05 0,0 0,46 77ZM42.71,78.5a10.7,10.7 0,0 0,-4.53 5.36l4.53,1.41ZM53.19,76.91c0.56,0.9 0.8,1.68 1.33,2.08a21.83,21.83 0,0 0,3 1.58,1.89 1.89,0 0,0 -0.74,-3A35.25,35.25 0,0 0,53.22 76.89Z" fill="#fff"/>
	<path d="M46.85,88.66c0.44,0.34 0.86,0.72 1.33,1 0.31,0.2 0.72,0.24 1,0.42 1,0.56 1.94,1.13 2.87,1.76 0.26,0.18 0.39,0.58 0.67,1 -1.19,-0.54 -2.18,-1 -3.18,-1.43a1.23,1.23 0,0 0,-1.83 0.62,2.69 2.69,0 0,1 -3.85,0.93 1.87,1.87 0,0 1,-0.82 -2.23,1.82 1.82,0 0,1 1.9,-1.4 4.92,4.92 0,0 0,0.94 0,2.87 2.87,0 0,0 0.75,-0.32ZM44.91,92.23c0.91,0 1.7,-0.66 1.55,-1.12a1,1 0,0 0,-0.76 -0.47,1.11 1.11,0 0,0 -1.26,1C44.43,91.87 44.82,92.12 44.91,92.23Z" fill="#fff"/>
	<path d="M56,39.62a13.45,13.45 0,0 1,2.46 8.31,6.71 6.71,0 0,1 -6,5.91c-3.05,0.14 -6.1,0.2 -9.15,0.23a4.61,4.61 0,0 1,-4.39 -3.71,4.66 4.66,0 0,1 8.26,-3.79c1,1.36 0.63,2.79 0,4.13a2.7,2.7 0,0 1,-2.91 1.66c-0.46,0 -0.94,0 -1.41,0 1.3,1 4.94,0.15 6.65,-0.82a12.24,12.24 0,0 0,5 -5.08A16.06,16.06 0,0 0,56 39.62Z" fill="#06242a" fill-rule="evenOdd"/>
	<path d="M41,41.5l4.31,-12.28A19,19 0,0 0,47.6 29a4.93,4.93 0,0 1,4.9 1.36,4.85 4.85,0 0,1 1.19,5c-0.09,0.3 -0.21,0.6 -0.4,1.14l1.12,-0.34A1.25,1.25 0,0 1,56 37.85a29.4,29.4 0,0 1,-1.12 3.06,1.32 1.32,0 0,1 -2.46,0.17c-0.64,-0.92 -3.32,-1.6 -4.37,-1.24 -1.82,0.61 -3.66,1.14 -5.5,1.65A7.14,7.14 0,0 1,41 41.5ZM47.68,30.65c0.74,1.27 1.54,2.44 2.13,3.71a2.2,2.2 0,0 0,2 1.4,3.3 3.3,0 0,0 0,-3.93A3.43,3.43 0,0 0,47.69 30.65Z" fill="#06242a" fill-rule="evenOdd"/>
	<path d="M55.32,53.42C59,50.2 59.75,47.53 58.17,43 57.69,41.65 57,40.34 56.45,39c1.82,2.19 3.7,4.35 4.54,7.16A4.58,4.58 0,0 1,59.8 51,7.68 7.68,0 0,1 55.32,53.42Z" fill="#06242a" fill-rule="evenOdd"/>
	<path d="M38.38,39.91c-1.73,-3.43 0.84,-10.71 4.11,-11.71C41.12,32.09 39.79,35.9 38.38,39.91Z" fill="#06242a" fill-rule="evenOdd"/>
	<path d="M39,40.92c-0.07,-0.38 -0.29,-0.81 -0.18,-1.13 1.28,-3.75 2.58,-7.49 3.93,-11.21 0.1,-0.29 0.57,-0.45 0.86,-0.68l0.27,0.28q-2.23,6.34 -4.46,12.7Z" fill="#06242a" fill-rule="evenOdd"/>
	<path d="M44.74,28.22c0.07,0.29 0.28,0.63 0.19,0.87q-2,5.91 -4.13,11.79c-0.07,0.2 -0.37,0.32 -0.57,0.47 -0.1,-0.22 -0.33,-0.49 -0.27,-0.66 1.42,-4.14 2.88,-8.27 4.32,-12.4Z" fill="#06242a" fill-rule="evenOdd"/>
	<path d="M47.24,51.87c0.38,-1.41 0.72,-2.71 1.09,-4.08 0.85,0.07 1.84,0.05 2.22,1.17 0.3,0.88 -0.31,1.83 -1.48,2.34A17.07,17.07 0,0 1,47.24 51.87Z" fill="#06242a" fill-rule="evenOdd"/>
	<path d="M59.42,42.06c3,3.21 3.79,7.92 0.23,9.64C63,48.28 61.29,45.17 59.42,42.06Z" fill="#06242a" fill-rule="evenOdd"/>
	<path d="M53.12,47.87l-2,2.22C50.84,48.14 51.44,47.49 53.12,47.87Z" fill="#06242a" fill-rule="evenOdd"/>
</svg>
