<svg xmlns="http://www.w3.org/2000/svg" xmlns:android="http://schemas.android.com/apk/res/android" width="100dp" height="100dp" viewportWidth="100" viewportHeight="100">
	<path d="M91.74,100H8.65C4,100 0.24,96.74 0.24,92.72V7.58C0.24,3.57 4,0.31 8.65,0.31H91.74c4.65,0 8.42,3.26 8.42,7.27V92.72C100.16,96.74 96.39,100 91.74,100Z" fill="#06242a" fill-rule="evenOdd"/>
	<group>
		<clip-path d="M91.76,99.94H8.67C4,99.94 0.25,96.69 0.25,92.67V7.58C0.25,3.56 4,0.31 8.67,0.31H91.76c4.65,0 8.42,3.25 8.42,7.27V92.67C100.18,96.69 96.41,99.94 91.76,99.94Z" fill-rule="evenOdd"/>
		<path d="M0,52.55v1.32l-1.32,0.41L0,54.69V56l0.36,-0.54c0.52,2.25 1,4.52 1.35,6.79l-0.3,-0.36v1.32H1.36a68.44,68.44 0,0 0,-6.9 -7.41l0.83,0.25L-5.54,55l0.81,-1.07 -1.39,0.41L-7,53.27v1.32L-8.35,55l1.32,0.41v1.32l0.87,-1c2.49,2.49 5,4.9 7.31,7.58l-1.09,0.35L1.42,64v1.32l0.83,-1.07 0.11,0c0,0.5 0.44,1.13 0.4,1.52l-0.4,-0.44V67.7l-2.29,0.71 2.29,0.71v2.29l1.48,-1.85 0.56,0.15c0.66,1.05 1.24,2.09 1.95,3.19v0.39L5,73.7l1.32,0.41v1.32l0.82,-1.07c3,1.79 5.78,4.87 8.84,6.86l-1.3,0.39L16,82v1.32l0.89,-1c4.91,2 10.4,3.44 15.07,5.9v0.18l-1.32,0.41 1.32,0.41v1.32l0.84,-1c0,1.7 0,3.39 0.1,5.09l-0.07,0 -0.87,-1.07v1.32l-1.32,0.41 1.32,0.41V97l0.36,-0.43c-0.59,2.19 -1.19,4.4 -1.61,6.63l-0.06,0 -0.8,-1.07v1.18h1.69l0.39,-0.52 -0.95,0.28c0.75,-2.34 1.25,-4.8 1.85,-7.18l1.38,0.41 -0.83,-1.07 0.8,-1.07 -1.07,0.33c0,-1.67 0,-3.33 0,-5l1.13,0.34 -0.83,-1.07 0.8,-1.07 -1.35,0.41 -0.87,-1.07V88c-4.48,-2.37 -9.14,-3.63 -13.77,-5.49l-0.67,-0.86 0.81,-1.07L16.9,81 16,79.88V81c-2.47,-2.52 -6,-4.55 -8.32,-7.31l0.82,-1.07L7.17,73 6.35,72v0.34c-0.47,-0.85 -0.9,-1.67 -1.42,-2.45l1.29,0.41L4.79,68.41 6.2,66.56l-2.3,0.71a7.46,7.46 0,0 1,-1.24 -2.85l0.93,0.28 -0.82,-1.07c1.7,-1.89 3.68,-3.45 5.45,-5.3v0.92l0.83,-1.07 1.36,0.41 -0.84,-1.07 0.8,-1.07 -1.31,0.41 -0.84,-1.07v1.32l-1.35,0.41 1.27,0.4c-1.69,1.52 -3.33,3.13 -4.93,4.75l-1,0.3 -0.29,-0.35a70,70 0,0 0,-1.4 -7.46l0.17,-0.22 1.37,0.41 -0.82,-1.07 0.8,-1.07L0.8,53.62Z" fill="#144144"/>
		<path d="M102.47,-8.66v1.42l-1.39,0.45 1.39,0.44v1.43l1,-1.16 0.33,0.09s0,0 0,0c-3,5.75 -6.06,12.1 -9.06,18L93.3,10.27v2.47l-2.42,0.77 2.42,0.76v0.22c-2.48,4.12 -5.46,8.07 -8.13,12.13l-1.53,-2v2.48l-2.42,0.76 2.42,0.77v2.47L85,29.44c0.29,1.07 0.64,2.16 0.95,3.24l-0.09,-0.19v1.43l-1.39,0.44 1.39,0.44c-0.8,0.86 -1.58,1.77 -2.33,2.67l-0.9,-1.1V37.8l-1.39,0.44 1.39,0.44v1.43l0.81,-1a15.92,15.92 0,0 1,0.65 2.62l-1.29,0.39 1.32,0.44V44l0.93,-1.08c3.82,1.73 7.55,3.81 11.52,5.12l-1.08,0.3 1.27,0.44V50.2l1,-1.15 1.52,0.44 -0.75,-1c2.74,-1 5.38,-1.94 8.1,-3l0.49,0.19V47.1l1,-1.16c1.33,0.27 2.4,1.39 3.59,2.06l-1,0.33 1.39,0.44V50.2l0.94,-1.15 1.46,0.44 -0.1,-0.14c2,0.89 4,1.73 6.08,2.56l-1,0.3 1.32,0.45v1.42l1,-1.15 1.49,0.44 -0.85,-1.16 0.85,-1.15 -1.49,0.44 -1,-1.15s0,1.41 0,1.45c-2.25,-1 -4.48,-2 -6.78,-3l-0.35,-0.5 0.85,-1.15 -1.44,0.44 -0.94,-1.16v1.43c-0.87,-1 -2.48,-1.46 -3.25,-2.66l0.85,-1.16 -1.53,0.44 -1,-1.15v1.43l-1.28,0.44 0.4,0.11c-2.6,0.92 -5.15,1.89 -7.71,2.88l0.78,-1 -1.55,0.44 -1,-1.16v1.43h0.13c-3.67,-0.94 -7.07,-3.06 -10.53,-4.68l0.25,0.07 -0.86,-1.16L86.62,41l-1.5,0.44 -1,-1.16v1.1A6.84,6.84 0,0 0,83.66 39l1.36,0.4 -0.85,-1.15L85,37.08l-1.21,0.38c0.7,-0.73 1.31,-1.46 2.06,-2.22v1l0.92,-1.16 1.45,0.44 -0.87,-1.15 0.85,-1.16 -1.42,0.44 -0.24,-0.3a26.47,26.47 0,0 0,-1.17 -4.23l2.41,0.77 -1.49,-2 1.49,-2 -2.19,0.67A91.89,91.89 0,0 0,93.3 15.1v1.65l1.57,-2 2.46,0.76 -1.47,-2 1.5,-2L95,12.26c3.11,-6 6.12,-12.1 9.14,-18.16l0.87,0.26 -0.6,-0.79a0.17,0.17 0,0 0,-0.19 -0.25l-0.08,-0.11L105,-7.95l-1.5,0.44Z" fill="#144144"/>
		<path d="M96.87,80.31v1.43l-1.47,0.44 1.47,0.44v0c-2,0.86 -3.11,2.36 -5.11,2.68l-1.13,-1.16v1.43l-1.32,0.44 1.3,0.37c-1.07,1.3 -2,2.48 -3.08,3.78l-0.79,-1v1.43l-1.47,0.44 1.47,0.44v0.27C79.29,102.89 73.38,115 64.92,125.31l-1.56,-2v2.48l-2.54,0.76 2.54,0.77v2.47l1.56,-2 2.53,0.77 -1.57,-2 1.56,-2 -1.9,0.57c8.27,-10.05 13.91,-21.61 21.2,-32.44V93l1,-1.16 1.52,0.44 -0.91,-1.15L89.19,90l-1.4,0.42a32.66,32.66 0,0 0,2.84 -3.66v1.22l1.1,-1.15 1.6,0.44 -0.88,-1.16c1.24,-1.39 2.65,-1.93 4.42,-3v1l0.6,-0.79c0,1.69 0.14,3.37 0.22,5.06l-0.82,-1v1.43l-1.47,0.44 1.47,0.44V91l0.49,-0.66A25.27,25.27 0,0 0,97.09 93l-0.44,0.12 -1.6,-2v2.48l-2.54,0.76 2.54,0.77v2.47l1.59,-2 0.32,0.09c-3.53,11.76 -7.17,23.44 -11.19,35.06l-0.29,0.05 -1.08,-1.16V131l-1.46,0.44 1.46,0.44v1.43l1.08,-1.15 1.59,0.44 -0.88,-1.16 0.9,-1.15 -1,0.3A339.3,339.3 0,0 0,97.36 95.78l1.84,0.55 -1.57,-2 1.57,-2 -1.84,0.55c0.11,-1 0.27,-2 0.43,-3l1.46,0.42 -0.92,-1.15L99.22,88l-1.35,0.4c0,-1.83 0,-3.67 -0.1,-5.5l1.48,0.43 -0.92,-1.16L99.22,81l-1.44,0.44Z" fill="#144144"/>
		<path d="M28,-6.21l-0.75,1.35L25.8,-4.7l1,0.68 -0.76,1.36 0.77,-0.48C24.88,-0.29 23,2.6 21.22,5.5L21,4.23l-0.76,1.36 -1.48,0.15 1,0.68c-1,2.11 -4.38,4 -6.3,5.49l-0.11,-2L12,12.29c-2.81,0.35 -5.21,-1.11 -7.86,-1.47l0.76,-0.54 -1.55,0.14L3.13,9.15l-0.55,1C0,7.22 -3,4.33 -5.86,1.45l0,-0.28 2.4,-1.62 -2.44,0.3L-6.07,-2.3 -7.38,0.05 -9.95,0.32 -8.19,1.5 -9.5,3.84l1.88,-1.38c-0.23,7.42 -0.48,14.82 -0.51,22.18l-2.18,0.24 1.77,1.18 -1.31,2.35 2.35,-1.63A137.17,137.17 0,0 0,5.13 35.86L3.76,36 5.55,37.2 4.24,39.54 6.6,37.91l1.74,1.17L8.05,36.9l2.39,-1.62 -2.57,0.28 -0.26,-2c1.29,-6.34 3.14,-12.75 4.54,-19.1l1.71,1.13 -0.28,-2.17L16,11.8l-2.41,0.26a57.87,57.87 0,0 0,7 -5.19l1.05,0.68L21.41,6.3l1.37,-0.94 -1.21,0.12c2,-3 4,-6 6,-9.06l1.06,0.69 -0.17,-1.26 1.37,-0.94 -1.52,0.15ZM9.47,12.49l-0.12,0 1.87,1.2L9.91,16.08l2,-1.42c-1.52,6.48 -3.31,13 -4.6,19.44l-0.92,1.64 -0.71,0.07C1.76,33.17 -2.11,30.48 -5.8,27.63L-6,25.77l2.39,-1.62 -2.53,0.28 -0.24,-2.17 -1.31,2.35h-0.09c0.29,-7.51 0.4,-15 0.49,-22.43h0l1.76,1.18 -0.19,-1.24C-3,4.89 -0.28,7.72 2.44,10.4l-0.06,0.1 -1.49,0.16 1,0.68 -0.76,1.35 1.46,-0.92 1.08,0.69 -0.16,-1.25 0.21,-0.14C5.6,11.61 7.54,12.06 9.47,12.49Z" fill="#144144"/>
	</group>
	<path d="M79.68,39.16a1.19,1.19 0,0 0,-0.79 0.3L71,31.65L71,20.18c1.85,-0.51 -0.39,-2.73 -0.9,-0.88L58.57,19.3l-7.86,-7.8c1.55,-2.64 -3.44,-2.64 -1.88,0L41,19.3L29.41,19.3c-0.51,-1.85 -2.75,0.38 -0.89,0.88L28.52,31.65l-7.87,7.8c-2.65,-1.55 -2.65,3.4 0,1.86l7.87,7.8L28.52,60.57c-1.86,0.51 0.38,2.73 0.89,0.89L41,61.46l7.87,7.8c-1.56,2.64 3.43,2.63 1.88,0l7.86,-7.8L70.12,61.46c0.52,1.84 2.75,-0.38 0.9,-0.89L71.02,49.11l7.87,-7.81C80.67,42.63 81.92,39.31 79.68,39.16ZM78.76,39.59a1.16,1.16 0,0 0,-0.29 0.69L73.39,40.28L71,37.93v-6ZM68.66,35.59L70.83,32v5.72ZM68.52,35.45 L66.52,33.45v-6L70.8,31.7ZM56.71,23.74l-2,-2 3.78,-2.26 4.27,4.23ZM54.6,21.63l-2.17,-2.15h5.76ZM44.94,21.63 L41.35,19.48L47.1,19.48ZM44.8,21.77 L42.8,23.77L36.76,23.77L41,19.51ZM33,33.48l-2,2L28.73,31.7 33,27.47ZM30.88,35.59 L28.72,37.74L28.72,32ZM30.88,45.17 L28.72,48.73L28.72,43ZM31.02,45.31 L33.02,47.31v6l-4.26,-4.22ZM42.82,57l2,2L41,61.25 36.76,57ZM44.94,59.1 L47.1,61.25L41.35,61.25ZM54.6,59.1 L58.19,61.25L52.43,61.25ZM54.73,58.96 L56.73,56.96h6.07l-4.27,4.23ZM66.54,47.27l2,-2 2.28,3.75 -4.26,4.22ZM68.66,45.17L70.83,43v5.71ZM66.54,27.17L66.54,23.87L70.43,20a0.79,0.79 0,0 0,0.4 0.16L70.83,31.46ZM70.12,19.45a0.8,0.8 0,0 0,0.17 0.4l-3.88,3.86L63.05,23.71l-4.29,-4.26ZM52.24,19.3l-2.38,-2.36v-5a1.26,1.26 0,0 0,0.71 -0.29L58.3,19.3ZM49,11.63a1.29,1.29 0,0 0,0.71 0.29v5L47.3,19.3L41.23,19.3ZM36.49,23.74L33.13,23.74l-3.89,-3.86a0.8,0.8 0,0 0,0.17 -0.4L40.77,19.48ZM28.71,20.18a0.83,0.83 0,0 0,0.4 -0.16L33,23.87L33,27.2l-4.28,4.26ZM28.52,37.93 L26.14,40.28L21.08,40.28a1.23,1.23 0,0 0,-0.29 -0.7l7.73,-7.67ZM20.79,41.18a1.29,1.29 0,0 0,0.29 -0.71h5.06l2.38,2.36v6ZM33,53.55v3.33l-3.88,3.86a0.84,0.84 0,0 0,-0.4 -0.17L28.72,49.3ZM29.42,61.27a0.8,0.8 0,0 0,-0.17 -0.4L33.13,57h3.36l4.28,4.25ZM47.31,61.46 L49.68,63.82v5a1.3,1.3 0,0 0,-0.71 0.3l-7.73,-7.67ZM50.58,69.13a1.27,1.27 0,0 0,-0.71 -0.3v-5l2.38,-2.36L58.3,61.47ZM63.05,57h3.36l3.88,3.85a0.8,0.8 0,0 0,-0.17 0.4L58.76,61.25ZM70.83,60.55a0.8,0.8 0,0 0,-0.4 0.17l-3.89,-3.86L66.54,53.55l4.29,-4.25ZM71,42.83l2.37,-2.36h5.08a1.13,1.13 0,0 0,0.29 0.69L71,48.84Z" fill="#f9d157"/>
	<path d="M54.68,43.12A9.41,9.41 0,0 1,51.05 50,2.83 2.83,0 0,1 47.13,50a9,9 0,0 1,-3.44 -7.74c0.1,-1.34 0.23,-2.68 0.35,-4a5.3,5.3 0,0 1,5 -4.86,5.15 5.15,0 0,1 5.14,4.49C54.4,39.5 54.5,41.17 54.68,43.12ZM53.08,40.38c-0.38,0.55 -0.81,0.9 -0.77,1.2s0.5,0.58 0.79,0.87c0.3,-0.31 0.77,-0.58 0.85,-0.93S53.5,40.91 53.08,40.38ZM46.37,41.62c-0.55,-0.41 -0.87,-0.85 -1.18,-0.84s-0.59,0.48 -0.89,0.74c0.29,0.31 0.54,0.79 0.88,0.88S45.81,42 46.37,41.62Z" fill="#06242a" fill-rule="evenOdd"/>
	<path d="M43.47,37.21a17.37,17.37 0,0 0,-0.24 -3,3 3,0 0,0 -2.87,-2.12 2.33,2.33 0,0 0,-2.52 1.55A3.22,3.22 0,0 0,38.08 36a2.31,2.31 0,0 0,2 0.75,2.28 2.28,0 0,0 1.35,-1.44c0.12,-0.39 -0.35,-1.14 -0.77,-1.47a1,1 0,0 0,-1.64 0.46c-0.35,0.68 -0.14,1.24 0.74,1.57l-0.08,-0.4c0,-0.38 -0.1,-0.76 -0.16,-1.14 0.34,0 0.82,-0.23 1,-0.07s0.59,0.81 0.49,1.09 -0.69,1 -1,1a2.29,2.29 0,0 1,-1.69 -0.82,2.26 2.26,0 0,1 0.15,-2 3,3 0,0 1,2 -1A2.74,2.74 0,0 1,43 35.64a3.7,3.7 0,0 1,-5.21 3A4.2,4.2 0,0 1,35 35.1a5.42,5.42 0,0 1,2.13 -5.3,6.5 6.5,0 0,1 8.06,0.42 25.36,25.36 0,0 1,2.48 2.61A6.67,6.67 0,0 0,43.47 37.21Z" fill="#06242a" fill-rule="evenOdd"/>
	<path d="M55,36.86A7.51,7.51 0,0 0,51 33c0.89,-2.61 4.18,-4.57 7.19,-4.36a5.71,5.71 0,0 1,5.13 4.69,4.56 4.56,0 0,1 -5.55,5.45 3.61,3.61 0,0 1,-2.53 -3.52,2.77 2.77,0 0,1 2.22,-2.72 2.23,2.23 0,0 1,2.81 2.34,1.67 1.67,0 0,1 -2.1,1.49 1.13,1.13 0,0 1,-0.82 -1.62c0.14,-0.32 0.75,-0.42 1.15,-0.61 0.13,0.49 0.26,1 0.46,1.71 0.14,-0.47 0.47,-1 0.37,-1.4a1,1 0,0 0,-1.54 -0.68c-0.46,0.29 -1,1.1 -0.92,1.47a2.49,2.49 0,0 0,1.43 1.51A2.1,2.1 0,0 0,60.18 36a3.29,3.29 0,0 0,0.27 -2.37,2.49 2.49,0 0,0 -3,-1.54A3.17,3.17 0,0 0,54.85 35,15.24 15.24,0 0,0 55,36.86Z" fill="#06242a" fill-rule="evenOdd"/>
	<path d="M37.12,47.26c2.18,0 4.33,0 6.49,0 0.28,0 0.58,0.34 0.82,0.58a26,26 0,0 1,3 3.16,4.72 4.72,0 0,1 0.41,2.47c0,0.12 -0.78,0.38 -1.2,0.39C42.54,54 38.13,50.9 37.12,47.26Z" fill="#06242a" fill-rule="evenOdd"/>
	<path d="M61.21,47.26a9.94,9.94 0,0 1,-10.72 6.49c-0.13,-1.3 -0.42,-2.5 1.18,-3.38 0.9,-0.49 1.42,-1.64 2.16,-2.44a1.77,1.77 0,0 1,1 -0.64C56.93,47.23 59,47.26 61.21,47.26Z" fill="#06242a" fill-rule="evenOdd"/>
	<path d="M43.43,37.09c-0.2,2.37 -0.36,4.4 -0.54,6.51H37.1A9,9 0,0 0,41 39.27C41.37,38.48 42.39,38 43.43,37.09Z" fill="#06242a" fill-rule="evenOdd"/>
	<path d="M60.9,43.64H55.41c-0.19,-2.08 -0.37,-4.12 -0.56,-6.15l0.26,-0.17c0.75,0.68 1.77,1.21 2.18,2A10.31,10.31 0,0 0,60.9 43.64Z" fill="#06242a" fill-rule="evenOdd"/>
	<path d="M47.8,32.21l-3.92,-3.63 3.92,-1Z" fill="#06242a" fill-rule="evenOdd"/>
	<path d="M50.48,32.2V27.55l4,1Z" fill="#06242a" fill-rule="evenOdd"/>
	<path d="M62,46c-0.32,0.26 -0.63,0.74 -1,0.75 -2.15,0.07 -4.3,0 -6.45,0 -0.06,-0.13 -0.13,-0.26 -0.2,-0.39 0.38,-0.26 0.76,-0.72 1.15,-0.74 2.07,-0.07 4.15,0 6.22,0Z" fill="#06242a" fill-rule="evenOdd"/>
	<path d="M43.7,46.82c-2.17,0 -4.23,0 -6.3,0 -0.38,0 -0.74,-0.42 -1.11,-0.65l0.15,-0.48h3.93c0.73,0 1.46,0 2.19,0S43.67,45.94 43.7,46.82Z" fill="#06242a" fill-rule="evenOdd"/>
	<path d="M55,44.89c0.29,-0.26 0.57,-0.72 0.87,-0.73 2.14,-0.06 4.28,0 6.43,0l0.2,0.33c-0.29,0.25 -0.58,0.73 -0.87,0.74 -2.14,0.06 -4.29,0 -6.43,0Z" fill="#06242a" fill-rule="evenOdd"/>
	<path d="M43,45.23c-2.07,0 -4.14,0 -6.2,0 -0.35,0 -0.68,-0.44 -1,-0.68l0.19,-0.39c2.18,0 4.36,0 6.54,0 0.26,0 0.51,0.48 0.77,0.73Z" fill="#06242a" fill-rule="evenOdd"/>
	<path d="M61.85,77.07c0.17,0.76 0.26,1.31 -0.72,1.38a1,1 0,0 0,-0.62 0.75,30.32 30.32,0 0,0 0.22,9 1.31,1.31 0,0 1,-0.3 1.12c-0.42,0.33 -0.85,0.12 -1.27,-0.32a4.94,4.94 0,0 0,-1.63 -1c-1.19,-0.53 -2.43,-1 -3.63,-1.49a3.89,3.89 0,0 1,-1.08 -0.71c-1,-0.89 -0.85,-1.49 0.29,-2.12 0.73,-0.41 1.44,-0.87 2.15,-1.32 0.41,-0.27 0.42,-0.56 0.19,-1a4.85,4.85 0,0 0,-4 -2.75,7.12 7.12,0 0,0 -1.44,0.14c1,2.89 0.56,5.67 0.36,8.46a5.76,5.76 0,0 0,0.11 1.09c0.08,0.52 0.17,1.07 -0.5,1.21s-1.15,0.14 -1.45,-0.64a3.67,3.67 0,0 0,-3.09 -2.76c-1.17,1.4 -1.4,1.5 -2.36,1.05a2,2 0,0 1,-1.06 -2.36c0.21,-1.49 1.43,-0.94 2.48,-1.15a10.43,10.43 0,0 0,-0.5 -1.15c-0.25,-0.43 -0.56,-0.82 -0.85,-1.23 -0.87,-1.22 -0.87,-1.45 0,-2.61a2.44,2.44 0,0 0,-2.47 0.14c-2.37,1.59 -3.69,6.6 -2.41,9.17a3.94,3.94 0,0 0,0.33 0.46c0.13,-0.24 0.24,-0.4 0.32,-0.57 0.37,-0.9 0.87,-1.1 1.76,-0.69s0.53,1 0.27,1.58a1.65,1.65 0,0 1,-2.63 0.66,4.46 4.46,0 0,1 -2,-3.14 8.45,8.45 0,0 1,3.16 -8.11A4.27,4.27 0,0 1,44 77.36a5.74,5.74 0,0 0,1.25 0c1.23,0.09 2.45,0.21 3.68,0.29a2.42,2.42 0,0 0,0.93 -0.08c1,-0.35 1.88,-0.87 2.92,-0.17 0.21,0.14 0.6,0 0.9,0L57.93,77a1,1 0,0 1,0.46 0,7.41 7.41,0 0,0 1.75,0.56A5.86,5.86 0,0 0,61.85 77.07ZM48.76,86.62a17.85,17.85 0,0 0,0.38 -6.78,1.87 1.87,0 0,0 -0.44,-1 2.82,2.82 0,0 0,-3.24 -0.12,2 2,0 0,0 -0.74,2.55c0.34,1 0.72,2 1.1,3a0.89,0.89 0,0 0,0.32 0.32C47,85.28 47.82,85.91 48.76,86.62ZM54.54,78.25a23.12,23.12 0,0 1,2.33 2.84A4.45,4.45 0,0 0,59 82.73L59,79.48a1.22,1.22 0,0 0,-1.15 -1.35C56.81,78.07 55.74,78.2 54.54,78.25ZM59,87.62A23.89,23.89 0,0 1,58.9 85c0.07,-1.11 -0.76,-1.46 -1.5,-1.75 -0.29,-0.12 -0.86,0.33 -1.25,0.61s-1,0.82 -1.6,1.35Z" fill="#fff"/>
</svg>
