<svg xmlns="http://www.w3.org/2000/svg" xmlns:android="http://schemas.android.com/apk/res/android" width="24dp" height="24dp" viewportWidth="24" viewportHeight="24">
	<path d="M5.33,20.37a1,1 0,0 1,-1 -0.82c-0.19,-0.88 -0.36,-1.76 -0.54,-2.63L1.41,5.47A3,3 0,0 1,1.35 5,1 1,0 0,1 2.21,4l3.32,-0.67 4.93,-1a1,1 0,0 1,1.27 0.82q1.47,7.08 2.92,14.15a1,1 0,0 1,-0.89 1.34L5.55,20.34ZM6.98,11.37a1,1 0,0 0,2.08 0,1 1,0 0,0 -1,-1A1,1 0,0 0,7 11.36ZM13,17.16l-0.28,0.07 -1.54,0.3c-0.17,0 -0.3,0.1 -0.27,0.28s0.18,0.21 0.35,0.18l2,-0.41a0.24,0.24 0,0 0,0.22 -0.33l-0.48,-2.31c0,-0.16 -0.11,-0.27 -0.29,-0.23s-0.2,0.17 -0.16,0.33 0.11,0.56 0.17,0.84ZM3,5.53l0.2,0 1.63,-0.32c0.16,0 0.29,-0.11 0.25,-0.3s-0.2,-0.19 -0.35,-0.16l-2,0.4c-0.25,0.05 -0.31,0.13 -0.26,0.38l0.21,1c0.09,0.42 0.18,0.83 0.26,1.25 0,0.15 0.1,0.25 0.26,0.23s0.22,-0.16 0.19,-0.32l0,-0.15C3.28,6.86 3.14,6.21 3,5.53ZM10.35,4c0,0.08 0,0.13 0.05,0.19 0.13,0.64 0.26,1.28 0.4,1.92 0,0.21 0.19,0.32 0.33,0.22a0.36,0.36 0,0 0,0.12 -0.28c-0.15,-0.77 -0.31,-1.53 -0.47,-2.29a0.26,0.26 0,0 0,-0.35 -0.23l-2,0.4c-0.16,0 -0.29,0.08 -0.25,0.27s0.18,0.2 0.34,0.16ZM5.71,18.68c0,-0.09 0,-0.16 0,-0.23 -0.14,-0.63 -0.27,-1.26 -0.4,-1.89 0,-0.16 -0.1,-0.28 -0.28,-0.25s-0.2,0.17 -0.17,0.32l0.48,2.31a0.24,0.24 0,0 0,0.32 0.21l2,-0.41c0.16,0 0.27,-0.11 0.24,-0.27s-0.18,-0.19 -0.33,-0.16ZM4.85,11.86 L4.6,11.86c-0.16,0 -0.29,0 -0.3,0.2s0.09,0.23 0.25,0.25A2.33,2.33 0,0 0,6.16 12c0.14,-0.08 0.26,-0.18 0.16,-0.35s-0.25,-0.13 -0.39,-0.05A2.08,2.08 0,0 1,4.85 11.86ZM11.24,10.86a0.73,0.73 0,0 0,0.26 0c0.09,0 0.22,-0.12 0.22,-0.18a0.31,0.31 0,0 0,-0.17 -0.25,2.31 2.31,0 0,0 -1.75,0.35 0.2,0.2 0,0 0,-0.08 0.3,0.21 0.21,0 0,0 0.3,0.09l0.16,-0.08A1.93,1.93 0,0 1,11.24 10.86ZM11,9.11 L10.92,9a0.23,0.23 0,0 0,-0.32 -0.21A2.29,2.29 0,0 0,9.28 10a0.23,0.23 0,0 0,0.12 0.33,0.21 0.21,0 0,0 0.29,-0.12 2.07,2.07 0,0 1,1 -0.94ZM9,14.44a2.3,2.3 0,0 0,-0.37 -1.27c-0.09,-0.14 -0.2,-0.2 -0.35,-0.11s-0.11,0.22 0,0.35a1.46,1.46 0,0 1,0.2 0.44,6.11 6.11,0 0,1 0.08,0.86c0,0.2 0.06,0.34 0.21,0.35s0.24,-0.13 0.26,-0.29S9,14.55 9,14.44ZM7.05,8.2a2.46,2.46 0,0 0,0.38 1.36,0.22 0.22,0 0,0 0.33,0.1c0.14,-0.08 0.14,-0.2 0.07,-0.33a2,2 0,0 1,-0.29 -1.41,0.22 0.22,0 0,0 -0.2,-0.27 0.24,0.24 0,0 0,-0.26 0.22C7.06,8 7.06,8.13 7.05,8.2ZM10.05,11.75L10,11.75c-0.17,0 -0.36,0 -0.35,0.22s0.18,0.23 0.36,0.22a1.85,1.85 0,0 1,1.19 0.41c0.14,0.1 0.28,0.16 0.4,0s0,-0.27 -0.14,-0.36A2.33,2.33 0,0 0,10.08 11.75ZM6,11L6,11c0.18,0 0.37,0 0.37,-0.23s-0.19,-0.22 -0.36,-0.22a1.83,1.83 0,0 1,-1.17 -0.39c-0.14,-0.11 -0.29,-0.19 -0.42,0s0,0.28 0.16,0.38A2.39,2.39 0,0 0,6 11ZM8.41,9.3c0,0.32 0.06,0.46 0.22,0.44s0.22,-0.2 0.23,-0.38a1.86,1.86 0,0 1,0.41 -1.15c0.11,-0.14 0.16,-0.27 0,-0.38s-0.27,0 -0.36,0.11A2.37,2.37 0,0 0,8.41 9.3ZM7.64,13.3v0A0.26,0.26 0,0 0,7.4 13c-0.16,0 -0.22,0.13 -0.22,0.28a2,2 0,0 1,-0.42 1.27c-0.1,0.13 -0.14,0.25 0,0.36s0.26,0 0.35,-0.08A2.49,2.49 0,0 0,7.64 13.3ZM5.31,13.94 L5.51,13.87a2.37,2.37 0,0 0,1.19 -1c0.08,-0.14 0.13,-0.28 0,-0.38s-0.27,0 -0.34,0.16a1.8,1.8 0,0 1,-1 0.83s-0.13,0 -0.15,0.08a0.42,0.42 0,0 0,-0.07 0.25C5.15,13.84 5.25,13.89 5.31,13.94ZM9.31,12.58 L9.17,12.66c-0.12,0.12 -0.09,0.27 0.08,0.36a2.05,2.05 0,0 1,0.94 1.05s0,0.06 0,0.07 0.21,0.08 0.29,0 0.1,-0.17 0.07,-0.24a2.28,2.28 0,0 0,-1.12 -1.3ZM5.72,8.48c-0.21,0 -0.3,0.12 -0.25,0.26a2.39,2.39 0,0 0,1.16 1.34A0.21,0.21 0,0 0,7 10a0.19,0.19 0,0 0,-0.1 -0.29,2.22 2.22,0 0,1 -1,-1.08C5.85,8.56 5.75,8.51 5.72,8.48Z" fill="#9691a4"/>
	<path d="M8.92,20.11l1.32,-0.27c1.23,-0.25 2.46,-0.49 3.69,-0.75a1.43,1.43 0,0 0,1.15 -1.73c0,-0.15 -0.05,-0.3 -0.08,-0.45a3.24,3.24 0,0 0,-0.12 -6.43,3.22 3.22,0 0,1 -0.21,4.9L14.39,14c-0.38,-1.84 -0.75,-3.67 -1.13,-5.51A0.76,0.76 0,0 1,13.32 8c0.28,-0.59 0.53,-1.2 0.79,-1.8L14.18,6l1.47,0.62 0.28,0.12c0.13,0.06 0.26,0.05 0.32,-0.09s0,-0.25 -0.14,-0.31l-1.61,-0.7c-0.58,-0.25 -0.56,-0.24 -0.8,0.31l-0.63,1.45c-0.12,-0.56 -0.21,-1.06 -0.32,-1.55a0.7,0.7 0,0 1,0.06 -0.53c0.08,-0.14 0.13,-0.29 0.2,-0.44a1,1 0,0 1,1.42 -0.55l6.42,2.79 1.25,0.54a1,1 0,0 1,0.57 1.44q-2.49,5.7 -5,11.4c-0.27,0.62 -0.54,1.24 -0.82,1.86a1,1 0,0 1,-1.42 0.56L9.11,20.19ZM21.07,9c0,0.1 -0.06,0.17 -0.09,0.23L20.23,11c-0.06,0.15 -0.1,0.3 0.08,0.38s0.27,-0.05 0.33,-0.2c0.3,-0.7 0.6,-1.4 0.91,-2.1 0.09,-0.2 0,-0.29 -0.16,-0.37l-1.81,-0.78c-0.06,0 -0.13,-0.07 -0.18,0a0.37,0.37 0,0 0,-0.22 0.13,0.35 0.35,0 0,0 0.07,0.25 0.54,0.54 0,0 0,0.2 0.1ZM15.72,21.3 L14,20.57c-0.13,-0.06 -0.28,-0.09 -0.36,0.07s0,0.27 0.18,0.34l1.83,0.78c0.24,0.11 0.32,0.07 0.43,-0.17l0.88,-2c0,-0.05 0.06,-0.11 0.05,-0.15s-0.05,-0.2 -0.1,-0.22a0.4,0.4 0,0 0,-0.28 0.05s-0.06,0.12 -0.08,0.18C16.27,20 16,20.66 15.72,21.3Z" fill="#9691a4"/>
	<path d="M22.24,2.66c0,0.17 -0.1,0.36 -0.16,0.55a0.35,0.35 0,0 0,0.07 0.38c0.11,0.12 0.21,0.25 0.31,0.38s0.07,0.34 -0.17,0.36a3.53,3.53 0,0 1,-0.46 0,0.38 0.38,0 0,0 -0.37,0.2 3.51,3.51 0,0 1,-0.27 0.4c-0.13,0.19 -0.32,0.17 -0.37,0A1,1 0,0 0,19.89 4a0.2,0.2 0,0 1,-0.07 -0.39,1 1,0 0,0 0.54,-1.16c0,-0.22 0.16,-0.32 0.33,-0.16A1,1 0,0 0,22 2.47C22.12,2.38 22.24,2.47 22.24,2.66Z" fill="#9691a4"/>
	<path d="M20.81,22.8a1.69,1.69 0,0 0,-1.65 -1.58,1.71 1.71,0 0,0 1.64,-1.66 1.71,1.71 0,0 0,1.58 1.66,1.8 1.8,0 0,0 -1.08,0.49A1.72,1.72 0,0 0,20.81 22.8Z" fill="#9691a4"/>
	<path d="M2.31,3a0.72,0.72 0,0 1,-0.72 -0.72,0.73 0.73,0 0,1 0.74,-0.68 0.74,0.74 0,0 1,0.7 0.71A0.71,0.71 0,0 1,2.31 3ZM2.31,2.69a0.39,0.39 0,0 0,0.39 -0.37,0.39 0.39,0 0,0 -0.77,0A0.41,0.41 0,0 0,2.31 2.7Z" fill="#9691a4"/>
	<path d="M6.84,21.91a0.72,0.72 0,0 1,0.71 -0.7,0.68 0.68,0 0,1 0.69,0.68 0.7,0.7 0,1 1,-1.4 0ZM7.55,21.53a0.39,0.39 0,0 0,-0.39 0.37,0.38 0.38,0 0,0 0.38,0.4 0.36,0.36 0,0 0,0.38 -0.37A0.38,0.38 0,0 0,7.55 21.53Z" fill="#9691a4"/>
	<path d="M21.18,17.35a2,2 0,0 1,0.08 -0.36c0,-0.06 0.13,-0.09 0.19,-0.14s0.11,0.14 0.11,0.2a0.72,0.72 0,0 1,-0.08 0.32c0,0.05 -0.11,0.11 -0.16,0.1S21.21,17.39 21.18,17.35Z" fill="#9691a4"/>
	<path d="M17.64,3.41a2,2 0,0 1,-0.38 -0.11c-0.05,0 -0.12,-0.13 -0.1,-0.16A0.23,0.23 0,0 1,17.33 3a1,1 0,0 1,0.33 0.09,0.23 0.23,0 0,1 0.11,0.18S17.67,3.38 17.64,3.41Z" fill="#9691a4"/>
	<path d="M21.86,15.85a1.7,1.7 0,0 1,-0.12 0.38,0.17 0.17,0 0,1 -0.17,0.08c-0.05,0 -0.1,-0.1 -0.1,-0.16a1,1 0,0 1,0.09 -0.33,0.23 0.23,0 0,1 0.18,-0.11C21.79,15.71 21.83,15.81 21.86,15.85Z" fill="#9691a4"/>
	<path d="M20.77,16.23a1.8,1.8 0,0 1,0.39 0.12,0.2 0.2,0 0,1 0.09,0.16s-0.1,0.11 -0.14,0.1a1.45,1.45 0,0 1,-0.41 -0.1,0.2 0.2,0 0,1 -0.06,-0.16C20.66,16.3 20.73,16.26 20.77,16.23Z" fill="#9691a4"/>
	<path d="M21.93,16.53a2.14,2.14 0,0 1,0.37 0.1,0.25 0.25,0 0,1 0.1,0.18s-0.11,0.11 -0.16,0.1a1.12,1.12 0,0 1,-0.36 -0.09,0.26 0.26,0 0,1 -0.08,-0.19C21.81,16.58 21.9,16.55 21.93,16.53Z" fill="#9691a4"/>
	<path d="M16.55,3.82a2.51,2.51 0,0 1,0.11 -0.38,0.22 0.22,0 0,1 0.16,-0.1c0.05,0 0.12,0.12 0.11,0.17a0.78,0.78 0,0 1,-0.09 0.34,0.19 0.19,0 0,1 -0.16,0.1C16.63,3.94 16.58,3.86 16.55,3.82Z" fill="#9691a4"/>
	<path d="M2.13,22.88a2.91,2.91 0,0 1,0.12 -0.41,0.25 0.25,0 0,1 0.18,-0.08s0.09,0.1 0.09,0.15a1.64,1.64 0,0 1,-0.1 0.38,0.21 0.21,0 0,1 -0.17,0.09S2.16,22.92 2.13,22.88Z" fill="#9691a4"/>
	<path d="M17.23,2.33a2.67,2.67 0,0 1,-0.13 0.4,0.16 0.16,0 0,1 -0.16,0.06c-0.05,0 -0.11,-0.09 -0.1,-0.13a1.32,1.32 0,0 1,0.11 -0.4s0.1,-0.07 0.16,-0.07a0.56,0.56 0,0 1,0.19 0.07Z" fill="#9691a4"/>
	<path d="M16.13,2.73a4,4 0,0 1,0.4 0.12A0.18,0.18 0,0 1,16.6 3s-0.1,0.1 -0.16,0.1A1.07,1.07 0,0 1,16.1 3a0.19,0.19 0,0 1,-0.1 -0.16C16,2.82 16.09,2.77 16.13,2.73Z" fill="#9691a4"/>
	<path d="M2.4,21.71a1.64,1.64 0,0 1,0.12 -0.39c0,-0.05 0.12,-0.11 0.16,-0.09a0.19,0.19 0,0 1,0.11 0.16,1.08 1.08,0 0,1 -0.1,0.35 0.19,0.19 0,0 1,-0.17 0.09S2.43,21.75 2.4,21.71Z" fill="#9691a4"/>
	<path d="M2.07,22.2a3.24,3.24 0,0 1,-0.37 -0.12c-0.05,0 -0.11,-0.13 -0.09,-0.16a0.21,0.21 0,0 1,0.17 -0.1,0.72 0.72,0 0,1 0.32,0.08 0.24,0.24 0,0 1,0.12 0.16C2.21,22.12 2.12,22.16 2.07,22.2Z" fill="#9691a4"/>
	<path d="M3.22,22.45a3.09,3.09 0,0 1,-0.38 -0.11,0.23 0.23,0 0,1 -0.09,-0.19s0.11,-0.1 0.16,-0.09a1,1 0,0 1,0.34 0.09,0.22 0.22,0 0,1 0.09,0.19S3.25,22.42 3.22,22.45Z" fill="#9691a4"/>
	<path d="M2.48,21.94c0,0.08 0.11,0.14 0.1,0.18a0.19,0.19 0,0 1,-0.13 0.1s-0.1,-0.08 -0.1,-0.11S2.41,22 2.48,21.94Z" fill="#9691a4"/>
	<path d="M16.89,3.25c-0.06,-0.09 -0.12,-0.13 -0.12,-0.18s0.07,-0.12 0.1,-0.11a0.18,0.18 0,0 1,0.13 0.11S17,3.16 16.89,3.25Z" fill="#9691a4"/>
</svg>
