<svg xmlns="http://www.w3.org/2000/svg" width="14.647" height="18" viewBox="0 0 14.647 18">
  <path id="logo_apple" d="M15.291,14.654a3.531,3.531,0,0,0,2.437-1.282,4.09,4.09,0,0,0,.95-2.518,1.693,1.693,0,0,0-.034-.355A4,4,0,0,0,16,11.873a3.883,3.883,0,0,0-.984,2.437,1.571,1.571,0,0,0,.034.32A1.322,1.322,0,0,0,15.291,14.654ZM12.43,28.5c1.11,0,1.6-.744,2.987-.744,1.408,0,1.716.721,2.952.721,1.213,0,2.025-1.121,2.792-2.22A10.088,10.088,0,0,0,22.4,23.705a3.955,3.955,0,0,1-2.4-3.639,4.084,4.084,0,0,1,1.934-3.433,4.235,4.235,0,0,0-3.559-1.785c-1.362,0-2.472.824-3.17.824-.755,0-1.751-.778-2.929-.778-2.243,0-4.52,1.854-4.52,5.355a11.071,11.071,0,0,0,1.888,5.962C10.531,27.47,11.309,28.5,12.43,28.5Z" transform="translate(-7.75 -10.5)"/>
</svg>
